<svg width="36" height="29" viewBox="0 0 36 29" fill="none" xmlns="http://www.w3.org/2000/svg">
<path d="M6.98438 21.5161C15.5328 25.7903 20.6618 25.7903 29.2102 21.5161" stroke="white" stroke-width="1.5" stroke-linecap="round" stroke-linejoin="round"/>
<path d="M24.0815 24.0806L25.7912 27.5C25.7912 27.5 32.9223 25.2295 35.1944 21.5161C35.1944 19.8065 36.1006 7.58739 30.0654 3.56452C27.5009 1.85484 23.2267 1 23.2267 1L21.517 4.41935H18.0977" stroke="white" stroke-width="1.5" stroke-linecap="round" stroke-linejoin="round"/>
<path d="M12.1612 24.0806L10.4516 27.5C10.4516 27.5 3.32049 25.2295 1.04833 21.5161C1.04833 19.8065 0.142196 7.58739 6.17736 3.56452C8.74187 1.85484 13.0161 1 13.0161 1L14.7257 4.41935H18.1451" stroke="white" stroke-width="1.5" stroke-linecap="round" stroke-linejoin="round"/>
<path d="M12.1133 18.097C10.6977 18.097 9.54883 16.5668 9.54883 14.6777C9.54883 12.7885 10.6977 11.2583 12.1133 11.2583C13.529 11.2583 14.6779 12.7885 14.6779 14.6777C14.6779 16.5668 13.529 18.097 12.1133 18.097ZM24.0811 18.097C22.6655 18.097 21.5166 16.5668 21.5166 14.6777C21.5166 12.7885 22.6655 11.2583 24.0811 11.2583C25.4967 11.2583 26.6456 12.7885 26.6456 14.6777C26.6456 16.5668 25.4967 18.097 24.0811 18.097Z" stroke="white" stroke-width="1.5" stroke-linecap="round" stroke-linejoin="round"/>
</svg>
