<svg width="34" height="34" viewBox="0 0 34 34" fill="none" xmlns="http://www.w3.org/2000/svg">
<path fill-rule="evenodd" clip-rule="evenodd" d="M17 2.18891C8.42208 2.18891 1.47758 9.098 1.47758 17.6065C1.47758 23.854 5.22183 29.2302 10.6108 31.6485C11.1747 31.9021 11.7257 31.8015 12.1564 31.4785C12.3946 31.293 12.5866 31.0549 12.7173 30.7828C12.8481 30.5108 12.9141 30.2121 12.9101 29.9102V29.1027L10.9877 28.8421C10.9734 28.8402 10.9593 28.8378 10.9452 28.835C9.8855 28.6282 9.17008 28.2556 8.64592 27.7187C8.20533 27.2667 7.93617 26.7256 7.70808 26.2666L7.62875 26.1065C7.41794 25.6668 7.18775 25.2366 6.93883 24.8173C6.74758 24.5142 6.59883 24.3583 6.4515 24.2606C6.0775 24.0127 5.71767 23.5919 5.71767 23.0663C5.71639 22.9151 5.74878 22.7654 5.81248 22.6282C5.87619 22.491 5.96962 22.3696 6.086 22.273C6.30566 22.0991 6.57942 22.0078 6.8595 22.0152C7.174 22.0152 7.47008 22.1115 7.71658 22.222C7.96875 22.3353 8.2195 22.4855 8.45325 22.6413C9.02275 23.021 9.58375 23.4701 10.0583 24.024C10.5527 24.5992 10.9027 24.9647 11.4297 25.0397C11.8632 25.1021 12.3052 25.1035 12.6494 25.0879C12.6973 24.8154 12.7762 24.5492 12.8846 24.2946C12.4641 24.1965 12.0494 24.0754 11.6422 23.9319C10.7157 23.6032 9.68292 23.0918 8.98875 22.3169C8.22658 21.4641 7.75483 20.7033 7.49133 19.8137C7.23492 18.9467 7.19242 18.0074 7.19242 16.8514C7.19242 15.0806 7.95883 13.5888 8.534 12.7969C8.31302 12.1036 8.1542 11.392 8.05942 10.6705C7.99664 10.2155 7.99712 9.75402 8.06083 9.29916C8.13167 8.88408 8.30875 8.37408 8.77483 8.06666C9.22392 7.76775 9.75092 7.7805 10.1617 7.857C10.5882 7.93775 11.0316 8.11483 11.4396 8.31741C12.104 8.64608 12.7642 9.08525 13.2586 9.45783C14.1114 9.20708 15.6202 8.88408 16.9844 8.85433H17.0156C18.3812 8.88408 19.822 9.20708 20.6536 9.45641C21.1494 9.08525 21.8082 8.64466 22.4712 8.31741C22.8792 8.11483 23.3212 7.93775 23.749 7.857C24.1598 7.7805 24.6868 7.76775 25.1373 8.06525C25.602 8.37408 25.7805 8.88408 25.8499 9.29916C25.9222 9.73125 25.9052 10.2143 25.8499 10.6705C25.7556 11.3919 25.5972 12.1035 25.3767 12.7969C25.9519 13.5902 26.7183 15.082 26.7183 16.8514C26.7183 18.0074 26.6758 18.9467 26.4208 19.8122C26.1559 20.7047 25.6842 21.4641 24.922 22.3169C24.2278 23.0918 23.1951 23.6032 22.2686 23.9319C21.7768 24.1048 21.2742 24.2453 20.7641 24.3527C20.9383 24.8797 21.0007 25.3061 21.0007 25.5512V29.9287C21.0007 30.5945 21.3109 31.1626 21.7515 31.4941C22.1793 31.8185 22.729 31.9191 23.2928 31.6726C28.7328 29.2756 32.521 23.8852 32.521 17.6051C32.521 9.098 25.5793 2.18891 17 2.18891ZM13.4243 26.506C13.056 26.5584 13.4229 26.506 13.4229 26.506H13.4187L13.4073 26.5088L13.3663 26.5145C13.1558 26.5392 12.9446 26.5567 12.733 26.5669C12.2288 26.5932 11.7233 26.5728 11.2228 26.506C10.1022 26.3473 9.42083 25.554 8.98025 25.0383L8.93775 24.9902C8.7937 24.8231 8.63896 24.6655 8.4745 24.5184C8.62042 24.7876 8.772 25.0879 8.93492 25.4109L8.94908 25.4392L9.02133 25.5866C9.26925 26.0796 9.43217 26.4082 9.70275 26.6831C9.96625 26.9522 10.3771 27.2129 11.2072 27.3772L13.7487 27.7215C13.9263 27.7455 14.089 27.8331 14.2068 27.9681C14.3245 28.1031 14.3893 28.2762 14.3891 28.4553V29.9102C14.3891 31.0436 13.8578 32.0537 13.0432 32.6657C12.6156 32.9925 12.1068 33.1963 11.5718 33.2552C11.0368 33.3141 10.4959 33.2259 10.0073 33C4.11117 30.3551 0 24.466 0 17.6065C0 8.26783 7.61742 0.708496 17 0.708496C26.3826 0.708496 34 8.26783 34 17.6065C34 24.5014 29.8364 30.4061 23.8892 33.0283C23.4003 33.2499 22.8603 33.3344 22.3271 33.2728C21.7938 33.2112 21.2873 33.0057 20.8618 32.6784C20.4411 32.3545 20.1012 31.9376 19.8686 31.4602C19.6361 30.9829 19.5174 30.4582 19.5217 29.9272V25.5497C19.5217 25.4506 19.4522 24.8782 19.0655 24.109C19.0121 24.0023 18.9852 23.8844 18.9871 23.7651C18.989 23.6458 19.0196 23.5288 19.0763 23.4238C19.133 23.3189 19.2141 23.2292 19.3129 23.1623C19.4116 23.0953 19.525 23.0532 19.6435 23.0394C20.3698 22.9484 21.0841 22.7793 21.7742 22.5351C22.6157 22.2376 23.3707 21.8296 23.8198 21.3281C24.4871 20.5829 24.82 20.0106 25.0028 19.3915C25.1926 18.7497 25.2407 18.0032 25.2407 16.8514C25.2407 15.235 24.3907 13.8764 23.9998 13.4387C23.911 13.3397 23.8505 13.2187 23.8246 13.0884C23.7986 12.958 23.8083 12.8231 23.8524 12.6977C24.1042 11.984 24.2823 11.2463 24.3837 10.4962C24.429 10.1067 24.4318 9.78083 24.3922 9.54566C24.3833 9.45968 24.3573 9.37635 24.3157 9.30058C24.2181 9.2837 24.1181 9.28805 24.0224 9.31333C23.7816 9.35866 23.4742 9.472 23.1257 9.64483C22.4315 9.98766 21.709 10.4948 21.2613 10.8575C21.1626 10.9376 21.0448 10.9908 20.9195 11.0119C20.7941 11.033 20.6654 11.0213 20.5459 10.9779C19.3989 10.6027 18.2058 10.3868 17 10.3362C15.5734 10.3702 13.9272 10.7753 13.3648 10.9779C13.2453 11.0213 13.1166 11.033 12.9913 11.0119C12.8659 10.9908 12.7481 10.9376 12.6494 10.8575C12.0705 10.3914 11.4458 9.98512 10.7851 9.64483C10.5013 9.49583 10.1994 9.38439 9.88692 9.31333C9.79167 9.28825 9.69215 9.28391 9.59508 9.30058C9.55344 9.37633 9.52743 9.45967 9.51858 9.54566C9.47892 9.78083 9.48175 10.1067 9.52708 10.4962C9.62918 11.2462 9.80717 11.9838 10.0583 12.6977C10.1476 12.9527 10.0923 13.2361 9.911 13.4387C9.52 13.8764 8.67 15.235 8.67 16.8514C8.67 18.0017 8.71817 18.7497 8.908 19.3915C9.09217 20.0106 9.42367 20.5815 10.0895 21.3281C10.54 21.8296 11.2937 22.2376 12.1366 22.5351C12.8262 22.7791 13.54 22.9482 14.2658 23.0394C14.4152 23.0554 14.5561 23.1165 14.6698 23.2146C14.7835 23.3127 14.8647 23.4431 14.9026 23.5884C14.9404 23.7337 14.9331 23.8871 14.8816 24.0282C14.8301 24.1693 14.7369 24.2914 14.6143 24.3782C14.3806 24.5453 14.2262 24.8457 14.1397 25.1927C14.0951 25.3714 14.0686 25.5542 14.0604 25.7382V25.7651C14.0622 25.9447 13.9987 26.1189 13.8817 26.2552C13.7647 26.3914 13.6022 26.4806 13.4243 26.506Z" fill="white"/>
</svg>
