<svg width="30" height="27" viewBox="0 0 30 27" fill="none" xmlns="http://www.w3.org/2000/svg">
<path d="M29.9212 4.06764C29.8371 3.86292 29.6958 3.68825 29.515 3.56565C29.3342 3.44305 29.122 3.37799 28.9052 3.37869H24.7314C24.2306 2.48378 23.5353 1.71894 22.6994 1.14342C21.8635 0.567889 20.9095 0.197116 19.9113 0.0598108C18.913 -0.0774942 17.8973 0.0223536 16.9428 0.351622C15.9883 0.680891 15.1206 1.23074 14.4069 1.9586C13.782 2.58255 13.2852 3.32811 12.9457 4.15147C12.6062 4.97484 12.4308 5.85939 12.4298 6.75316V7.61084C6.84193 6.12045 2.27002 1.50867 2.22883 1.45242C2.08522 1.30773 1.90551 1.20627 1.70936 1.15916C1.51322 1.11204 1.30821 1.12108 1.11674 1.18528C0.925888 1.24748 0.75498 1.36131 0.622067 1.51475C0.489154 1.66819 0.399171 1.85554 0.361622 2.05702C-0.832841 8.83408 1.15793 13.3756 3.03887 15.9908C3.98229 17.3132 5.12731 18.4716 6.43005 19.4215C4.32944 21.8539 1.08928 23.1194 1.06183 23.1334C0.906881 23.1923 0.7669 23.2862 0.652313 23.4081C0.537726 23.5301 0.451487 23.6769 0.40002 23.8377C0.348553 23.9986 0.333187 24.1692 0.355064 24.337C0.376942 24.5047 0.4355 24.6652 0.526376 24.8066C0.636212 24.9753 1.0481 25.5237 2.05035 26.0439C3.29973 26.6766 4.94726 27 6.93804 27C16.6173 27 24.7177 19.3653 25.5415 9.5371L29.6878 5.30495C29.8368 5.14231 29.9378 4.9398 29.9791 4.72084C30.0204 4.50187 30.0003 4.27541 29.9212 4.06764V4.06764ZM23.7017 8.24355C23.5104 8.43789 23.3976 8.69897 23.3859 8.97469C22.823 17.8186 15.6013 24.7504 6.93804 24.7504C5.48271 24.7504 4.46673 24.5535 3.7528 24.3145C5.33169 23.4427 7.5284 21.9242 8.95627 19.7449C9.03915 19.613 9.09418 19.4648 9.11783 19.3098C9.14147 19.1548 9.13321 18.9965 9.09356 18.845C9.0536 18.692 8.98289 18.5492 8.88596 18.4257C8.78904 18.3022 8.66802 18.2008 8.53065 18.1279C8.51693 18.1139 6.48496 17.0312 4.74132 14.5707C2.76428 11.7868 1.92678 8.39822 2.25629 4.48945C4.42554 6.31729 8.57184 9.29808 13.3497 10.1136C13.5075 10.1395 13.6689 10.1304 13.8228 10.0867C13.9768 10.043 14.1198 9.96586 14.2421 9.86049C14.3616 9.75338 14.4577 9.62159 14.5239 9.47377C14.5902 9.32595 14.6252 9.16545 14.6265 9.00281V6.75316C14.6286 5.72113 14.977 4.72119 15.6134 3.92098C16.2498 3.12077 17.1355 2.56893 18.1219 2.35798C19.1084 2.14703 20.1357 2.2898 21.0316 2.76234C21.9275 3.23489 22.6376 4.00848 23.0427 4.95344C23.1303 5.15444 23.2728 5.32516 23.4531 5.44493C23.6334 5.56471 23.8438 5.62841 24.0587 5.62834H26.2554L23.7017 8.24355Z" fill="white"/>
</svg>
